<?xml version="1.0" encoding="UTF-8" standalone="no"?>
<!DOCTYPE svg PUBLIC "-//W3C//DTD SVG 1.1//EN"
 "http://www.w3.org/Graphics/SVG/1.1/DTD/svg11.dtd">
<!-- Generated by graphviz version 2.47.0 (20210316.0004)
 -->
<!-- Title: dbml Pages: 1 -->
<svg width="480pt" height="970pt"
 viewBox="0.00 0.00 480.35 970.35" xmlns="http://www.w3.org/2000/svg" xmlns:xlink="http://www.w3.org/1999/xlink">
<g id="graph0" class="graph" transform="scale(1 1) rotate(0) translate(4 966.35)">
<title>dbml</title>
<!-- events -->
<g id="events" class="node">
<title>events</title>
<ellipse fill="none" stroke="black" stroke-width="0" cx="236.17" cy="-342.24" rx="236.35" ry="342.48"/>
<polygon fill="#1d71b8" stroke="transparent" points="71.17,-522.24 71.17,-582.24 401.17,-582.24 401.17,-522.24 71.17,-522.24"/>
<polygon fill="none" stroke="#29235c" points="71.17,-522.24 71.17,-582.24 401.17,-582.24 401.17,-522.24 71.17,-522.24"/>
<text text-anchor="start" x="126.79" y="-543.44" font-family="Helvetica,sans-Serif" font-weight="bold" font-size="32.00" fill="#ffffff"> &#160;&#160;&#160;&#160;&#160;&#160;events &#160;&#160;&#160;&#160;&#160;&#160;</text>
<polygon fill="#e7e2dd" stroke="transparent" points="71.17,-462.24 71.17,-522.24 401.17,-522.24 401.17,-462.24 71.17,-462.24"/>
<polygon fill="none" stroke="#29235c" points="71.17,-462.24 71.17,-522.24 401.17,-522.24 401.17,-462.24 71.17,-462.24"/>
<text text-anchor="start" x="82.17" y="-483.44" font-family="Helvetica,sans-Serif" font-weight="bold" font-size="32.00" fill="#29235c">id</text>
<text text-anchor="start" x="107.06" y="-483.44" font-family="Helvetica,sans-Serif" font-size="32.00" fill="#29235c"> &#160;&#160;&#160;</text>
<text text-anchor="start" x="253.28" y="-483.44" font-family="Helvetica,sans-Serif" font-style="italic" font-size="32.00" fill="#29235c">integer</text>
<text text-anchor="start" x="351.08" y="-483.44" font-family="Helvetica,sans-Serif" font-size="32.00" fill="#29235c"> </text>
<text text-anchor="start" x="359.98" y="-483.44" font-family="Helvetica,sans-Serif" font-weight="bold" font-size="32.00" fill="#29235c">(!)</text>
<polygon fill="#e7e2dd" stroke="transparent" points="71.17,-402.24 71.17,-462.24 401.17,-462.24 401.17,-402.24 71.17,-402.24"/>
<polygon fill="none" stroke="#29235c" points="71.17,-402.24 71.17,-462.24 401.17,-462.24 401.17,-402.24 71.17,-402.24"/>
<text text-anchor="start" x="82.17" y="-422.44" font-family="Helvetica,sans-Serif" font-size="32.00" fill="#29235c">title &#160;&#160;&#160;</text>
<text text-anchor="start" x="299.51" y="-423.44" font-family="Helvetica,sans-Serif" font-style="italic" font-size="32.00" fill="#29235c">text</text>
<text text-anchor="start" x="351.08" y="-423.44" font-family="Helvetica,sans-Serif" font-size="32.00" fill="#29235c"> </text>
<text text-anchor="start" x="359.98" y="-423.44" font-family="Helvetica,sans-Serif" font-weight="bold" font-size="32.00" fill="#29235c">(!)</text>
<polygon fill="#e7e2dd" stroke="transparent" points="71.17,-342.24 71.17,-402.24 401.17,-402.24 401.17,-342.24 71.17,-342.24"/>
<polygon fill="none" stroke="#29235c" points="71.17,-342.24 71.17,-402.24 401.17,-402.24 401.17,-342.24 71.17,-342.24"/>
<text text-anchor="start" x="82.17" y="-362.44" font-family="Helvetica,sans-Serif" font-size="32.00" fill="#29235c">start_date &#160;&#160;&#160;</text>
<text text-anchor="start" x="299.51" y="-363.44" font-family="Helvetica,sans-Serif" font-style="italic" font-size="32.00" fill="#29235c">text</text>
<text text-anchor="start" x="351.08" y="-363.44" font-family="Helvetica,sans-Serif" font-size="32.00" fill="#29235c"> </text>
<text text-anchor="start" x="359.98" y="-363.44" font-family="Helvetica,sans-Serif" font-weight="bold" font-size="32.00" fill="#29235c">(!)</text>
<polygon fill="#e7e2dd" stroke="transparent" points="71.17,-282.24 71.17,-342.24 401.17,-342.24 401.17,-282.24 71.17,-282.24"/>
<polygon fill="none" stroke="#29235c" points="71.17,-282.24 71.17,-342.24 401.17,-342.24 401.17,-282.24 71.17,-282.24"/>
<text text-anchor="start" x="82.17" y="-302.44" font-family="Helvetica,sans-Serif" font-size="32.00" fill="#29235c">end_date &#160;&#160;&#160;</text>
<text text-anchor="start" x="338.6" y="-303.44" font-family="Helvetica,sans-Serif" font-style="italic" font-size="32.00" fill="#29235c">text</text>
<polygon fill="#e7e2dd" stroke="transparent" points="71.17,-222.24 71.17,-282.24 401.17,-282.24 401.17,-222.24 71.17,-222.24"/>
<polygon fill="none" stroke="#29235c" points="71.17,-222.24 71.17,-282.24 401.17,-282.24 401.17,-222.24 71.17,-222.24"/>
<text text-anchor="start" x="82.17" y="-242.44" font-family="Helvetica,sans-Serif" font-size="32.00" fill="#29235c">start_hour &#160;&#160;&#160;</text>
<text text-anchor="start" x="292.37" y="-243.44" font-family="Helvetica,sans-Serif" font-style="italic" font-size="32.00" fill="#29235c">integer</text>
<polygon fill="#e7e2dd" stroke="transparent" points="71.17,-162.24 71.17,-222.24 401.17,-222.24 401.17,-162.24 71.17,-162.24"/>
<polygon fill="none" stroke="#29235c" points="71.17,-162.24 71.17,-222.24 401.17,-222.24 401.17,-162.24 71.17,-162.24"/>
<text text-anchor="start" x="81.87" y="-182.44" font-family="Helvetica,sans-Serif" font-size="32.00" fill="#29235c">start_minute &#160;&#160;&#160;</text>
<text text-anchor="start" x="292.77" y="-183.44" font-family="Helvetica,sans-Serif" font-style="italic" font-size="32.00" fill="#29235c">integer</text>
<polygon fill="#e7e2dd" stroke="transparent" points="71.17,-102.24 71.17,-162.24 401.17,-162.24 401.17,-102.24 71.17,-102.24"/>
<polygon fill="none" stroke="#29235c" points="71.17,-102.24 71.17,-162.24 401.17,-162.24 401.17,-102.24 71.17,-102.24"/>
<text text-anchor="start" x="82.17" y="-122.44" font-family="Helvetica,sans-Serif" font-size="32.00" fill="#29235c">duration &#160;&#160;&#160;</text>
<text text-anchor="start" x="292.37" y="-123.44" font-family="Helvetica,sans-Serif" font-style="italic" font-size="32.00" fill="#29235c">integer</text>
<polygon fill="none" stroke="#29235c" stroke-width="2" points="70.17,-101.24 70.17,-583.24 402.17,-583.24 402.17,-101.24 70.17,-101.24"/>
</g>
<!-- users -->
<g id="users" class="node">
<title>users</title>
<ellipse fill="none" stroke="black" stroke-width="0" cx="236.17" cy="-832.24" rx="207.36" ry="130.22"/>
<polygon fill="#1d71b8" stroke="transparent" points="92.17,-862.24 92.17,-922.24 381.17,-922.24 381.17,-862.24 92.17,-862.24"/>
<polygon fill="none" stroke="#29235c" points="92.17,-862.24 92.17,-922.24 381.17,-922.24 381.17,-862.24 92.17,-862.24"/>
<text text-anchor="start" x="135.31" y="-883.44" font-family="Helvetica,sans-Serif" font-weight="bold" font-size="32.00" fill="#ffffff"> &#160;&#160;&#160;&#160;&#160;&#160;users &#160;&#160;&#160;&#160;&#160;&#160;</text>
<polygon fill="#e7e2dd" stroke="transparent" points="92.17,-802.24 92.17,-862.24 381.17,-862.24 381.17,-802.24 92.17,-802.24"/>
<polygon fill="none" stroke="#29235c" points="92.17,-802.24 92.17,-862.24 381.17,-862.24 381.17,-802.24 92.17,-802.24"/>
<text text-anchor="start" x="103.17" y="-823.44" font-family="Helvetica,sans-Serif" font-weight="bold" font-size="32.00" fill="#29235c">id</text>
<text text-anchor="start" x="128.06" y="-823.44" font-family="Helvetica,sans-Serif" font-size="32.00" fill="#29235c"> &#160;&#160;&#160;</text>
<text text-anchor="start" x="233.28" y="-823.44" font-family="Helvetica,sans-Serif" font-style="italic" font-size="32.00" fill="#29235c">integer</text>
<text text-anchor="start" x="331.08" y="-823.44" font-family="Helvetica,sans-Serif" font-size="32.00" fill="#29235c"> </text>
<text text-anchor="start" x="339.98" y="-823.44" font-family="Helvetica,sans-Serif" font-weight="bold" font-size="32.00" fill="#29235c">(!)</text>
<polygon fill="#e7e2dd" stroke="transparent" points="92.17,-742.24 92.17,-802.24 381.17,-802.24 381.17,-742.24 92.17,-742.24"/>
<polygon fill="none" stroke="#29235c" points="92.17,-742.24 92.17,-802.24 381.17,-802.24 381.17,-742.24 92.17,-742.24"/>
<text text-anchor="start" x="102.76" y="-762.44" font-family="Helvetica,sans-Serif" font-size="32.00" fill="#29235c">username &#160;&#160;&#160;</text>
<text text-anchor="start" x="279.84" y="-763.44" font-family="Helvetica,sans-Serif" font-style="italic" font-size="32.00" fill="#29235c">text</text>
<text text-anchor="start" x="331.42" y="-763.44" font-family="Helvetica,sans-Serif" font-size="32.00" fill="#29235c"> </text>
<text text-anchor="start" x="340.31" y="-763.44" font-family="Helvetica,sans-Serif" font-weight="bold" font-size="32.00" fill="#29235c">(!)</text>
<polygon fill="none" stroke="#29235c" stroke-width="2" points="90.67,-741.24 90.67,-923.24 381.67,-923.24 381.67,-741.24 90.67,-741.24"/>
</g>
</g>
</svg>
